<?xml version="1.0" encoding="UTF-8" standalone="no" ?>
<!DOCTYPE svg PUBLIC "-//W3C//DTD SVG 1.1//EN" "http://www.w3.org/Graphics/SVG/1.1/DTD/svg11.dtd">
<svg xmlns="http://www.w3.org/2000/svg" xmlns:xlink="http://www.w3.org/1999/xlink" version="1.1" width="255" height="2220" viewBox="0 0 1080 1080" xml:space="preserve">
<desc>Created with Fabric.js 5.2.4</desc>
<defs>
</defs>
<g transform="matrix(1 0 0 1 540 540)" id="439df5dd-6861-4304-8b77-ac03d8501612"  >
<rect style="stroke: none; stroke-width: 1; stroke-dasharray: none; stroke-linecap: butt; stroke-dashoffset: 0; stroke-linejoin: miter; stroke-miterlimit: 4; fill: rgb(255,255,255); fill-rule: nonzero; opacity: 1; visibility: hidden;" vector-effect="non-scaling-stroke"  x="-540" y="-540" rx="0" ry="0" width="1080" height="1080" />
</g>
<g transform="matrix(1 0 0 1 540 540)" id="e4eb48a1-95fe-414e-a94e-4632de54e48a"  >
</g>
<g transform="matrix(5.27 0 0 5.27 -278.12 328.7)"  >
<path style="stroke: none; stroke-width: 1; stroke-dasharray: none; stroke-linecap: butt; stroke-dashoffset: 0; stroke-linejoin: miter; stroke-miterlimit: 4; fill: rgb(34,34,34); fill-rule: nonzero; opacity: 1;" vector-effect="non-scaling-stroke"  transform=" translate(-50.29, -11.14)" d="M 13.6722 13.716 C 13.8722 13.716 14.0402 13.788 14.1762 13.932 L 15.6042 15.456 C 14.9002 16.352 14.0242 17.032 12.9762 17.496 C 11.9362 17.96 10.6962 18.192 9.25619 18.192 C 7.95219 18.192 6.78019 17.972 5.74019 17.532 C 4.70019 17.084 3.81619 16.464 3.08819 15.672 C 2.36019 14.88 1.80019 13.94 1.40819 12.852 C 1.01619 11.764 0.820188 10.576 0.820188 9.288 C 0.820188 8.424 0.912188 7.604 1.09619 6.828 C 1.28819 6.044 1.56419 5.324 1.92419 4.668 C 2.28419 4.012 2.71619 3.42 3.22019 2.892 C 3.73219 2.364 4.30819 1.916 4.94819 1.548 C 5.58819 1.172 6.28419 0.887999 7.03619 0.696 C 7.79619 0.495999 8.60419 0.395998 9.46019 0.395998 C 10.1002 0.395998 10.7042 0.451999 11.2722 0.563999 C 11.8482 0.676 12.3842 0.832 12.8802 1.032 C 13.3762 1.232 13.8322 1.476 14.2482 1.764 C 14.6722 2.044 15.0522 2.352 15.3882 2.688 L 14.1762 4.344 C 14.1042 4.448 14.0122 4.54 13.9002 4.62 C 13.7882 4.7 13.6362 4.74 13.4442 4.74 C 13.2522 4.74 13.0562 4.672 12.8562 4.536 C 12.6642 4.4 12.4242 4.248 12.1362 4.08 C 11.8562 3.912 11.5002 3.76 11.0682 3.624 C 10.6442 3.488 10.1042 3.42 9.44819 3.42 C 8.72019 3.42 8.05219 3.552 7.44419 3.816 C 6.83619 4.08 6.31219 4.464 5.87219 4.968 C 5.44019 5.464 5.10419 6.076 4.86419 6.804 C 4.62419 7.532 4.50419 8.36 4.50419 9.288 C 4.50419 10.224 4.63219 11.06 4.88819 11.796 C 5.15219 12.524 5.50819 13.14 5.95619 13.644 C 6.41219 14.148 6.94019 14.532 7.54019 14.796 C 8.14819 15.052 8.79619 15.18 9.48419 15.18 C 9.89219 15.18 10.2602 15.16 10.5882 15.12 C 10.9242 15.08 11.2322 15.012 11.5122 14.916 C 11.8002 14.82 12.0682 14.696 12.3162 14.544 C 12.5722 14.392 12.8282 14.2 13.0842 13.968 C 13.1722 13.896 13.2642 13.836 13.3602 13.788 C 13.4562 13.74 13.5602 13.716 13.6722 13.716 Z M 29.7027 5.436 C 30.6307 5.436 31.4747 5.584 32.2347 5.88 C 32.9947 6.176 33.6467 6.6 34.1907 7.152 C 34.7347 7.696 35.1547 8.36 35.4507 9.144 C 35.7467 9.928 35.8947 10.812 35.8947 11.796 C 35.8947 12.78 35.7467 13.668 35.4507 14.46 C 35.1547 15.244 34.7347 15.912 34.1907 16.464 C 33.6467 17.016 32.9947 17.44 32.2347 17.736 C 31.4747 18.032 30.6307 18.18 29.7027 18.18 C 28.7667 18.18 27.9147 18.032 27.1467 17.736 C 26.3867 17.44 25.7347 17.016 25.1907 16.464 C 24.6467 15.912 24.2227 15.244 23.9187 14.46 C 23.6227 13.668 23.4747 12.78 23.4747 11.796 C 23.4747 10.812 23.6227 9.928 23.9187 9.144 C 24.2227 8.36 24.6467 7.696 25.1907 7.152 C 25.7347 6.6 26.3867 6.176 27.1467 5.88 C 27.9147 5.584 28.7667 5.436 29.7027 5.436 Z M 29.7027 15.696 C 30.6467 15.696 31.3467 15.372 31.8027 14.724 C 32.2587 14.068 32.4867 13.096 32.4867 11.808 C 32.4867 10.528 32.2587 9.564 31.8027 8.916 C 31.3467 8.26 30.6467 7.932 29.7027 7.932 C 28.7347 7.932 28.0227 8.26 27.5667 8.916 C 27.1107 9.564 26.8827 10.528 26.8827 11.808 C 26.8827 13.096 27.1107 14.068 27.5667 14.724 C 28.0227 15.372 28.7347 15.696 29.7027 15.696 Z M 45.1743 18 L 45.1743 5.628 L 47.2143 5.628 C 47.6303 5.628 47.9063 5.82 48.0423 6.204 L 48.2343 7.008 C 48.4503 6.784 48.6703 6.576 48.8943 6.384 C 49.1263 6.192 49.3743 6.028 49.6383 5.892 C 49.9023 5.748 50.1863 5.636 50.4903 5.556 C 50.8023 5.476 51.1383 5.436 51.4983 5.436 C 52.2583 5.436 52.8863 5.64 53.3823 6.048 C 53.8783 6.448 54.2543 6.984 54.5103 7.656 C 54.7103 7.264 54.9543 6.928 55.2423 6.648 C 55.5383 6.36 55.8583 6.128 56.2023 5.952 C 56.5543 5.776 56.9223 5.648 57.3063 5.568 C 57.6983 5.48 58.0903 5.436 58.4823 5.436 C 59.1783 5.436 59.7943 5.54 60.3303 5.748 C 60.8663 5.956 61.3143 6.264 61.6743 6.672 C 62.0423 7.072 62.3223 7.564 62.5143 8.148 C 62.7063 8.732 62.8023 9.396 62.8023 10.14 L 62.8023 18 L 59.4903 18 L 59.4903 10.14 C 59.4903 8.692 58.8703 7.968 57.6303 7.968 C 57.3503 7.968 57.0903 8.016 56.8503 8.112 C 56.6183 8.2 56.4103 8.336 56.2263 8.52 C 56.0503 8.704 55.9103 8.932 55.8063 9.204 C 55.7103 9.476 55.6623 9.788 55.6623 10.14 L 55.6623 18 L 52.3503 18 L 52.3503 10.14 C 52.3503 9.356 52.1943 8.8 51.8823 8.472 C 51.5783 8.136 51.1263 7.968 50.5263 7.968 C 50.1423 7.968 49.7783 8.06 49.4343 8.244 C 49.0983 8.42 48.7823 8.668 48.4863 8.988 L 48.4863 18 L 45.1743 18 Z M 73.2899 18 L 73.2899 8.004 L 72.3299 7.836 C 72.0819 7.788 71.8779 7.7 71.7179 7.572 C 71.5659 7.444 71.4899 7.26 71.4899 7.02 L 71.4899 5.7 L 73.2899 5.7 L 73.2899 4.884 C 73.2899 4.18 73.3979 3.544 73.6139 2.976 C 73.8379 2.4 74.1539 1.916 74.5619 1.524 C 74.9699 1.124 75.4699 0.815999 76.0619 0.599999 C 76.6539 0.383999 77.3219 0.275999 78.0659 0.275999 C 78.3539 0.275999 78.6259 0.295999 78.8819 0.335999 C 79.1459 0.367999 79.4099 0.419999 79.6739 0.491999 L 79.6019 2.124 C 79.5859 2.372 79.4779 2.536 79.2779 2.616 C 79.0859 2.688 78.8699 2.724 78.6299 2.724 C 78.2939 2.724 77.9899 2.76 77.7179 2.832 C 77.4539 2.904 77.2299 3.028 77.0459 3.204 C 76.8619 3.372 76.7219 3.604 76.6259 3.9 C 76.5299 4.188 76.4819 4.548 76.4819 4.98 L 76.4819 5.7 L 79.5539 5.7 L 79.5539 8.004 L 76.5899 8.004 L 76.5899 18 L 73.2899 18 Z M 99.7572 5.628 L 93.0852 21.324 C 92.9812 21.548 92.8532 21.716 92.7012 21.828 C 92.5572 21.94 92.3252 21.996 92.0052 21.996 L 89.5452 21.996 L 91.8852 17.004 L 86.9172 5.628 L 89.8212 5.628 C 90.0852 5.628 90.2892 5.688 90.4332 5.808 C 90.5772 5.928 90.6812 6.068 90.7452 6.228 L 93.0972 12.144 C 93.1852 12.376 93.2612 12.612 93.3252 12.852 C 93.3972 13.084 93.4652 13.316 93.5292 13.548 C 93.6732 13.076 93.8372 12.604 94.0212 12.132 L 96.2052 6.228 C 96.2692 6.052 96.3852 5.908 96.5532 5.796 C 96.7212 5.684 96.9052 5.628 97.1052 5.628 L 99.7572 5.628 Z" stroke-linecap="round" />
</g>
<g transform="matrix(5.27 0 0 5.27 774.64 540)"  >
<path style="stroke: none; stroke-width: 1; stroke-dasharray: none; stroke-linecap: butt; stroke-dashoffset: 0; stroke-linejoin: miter; stroke-miterlimit: 4; fill: rgb(240,157,81); fill-rule: nonzero; opacity: 1;" vector-effect="non-scaling-stroke"  transform=" translate(-156.42, -9.39)" d="M 123.631 0.587999 L 123.631 18 L 120.007 18 L 120.007 10.5 L 112.339 10.5 L 112.339 18 L 108.715 18 L 108.715 0.587999 L 112.339 0.587999 L 112.339 7.98 L 120.007 7.98 L 120.007 0.587999 L 123.631 0.587999 Z M 139.226 5.436 C 140.154 5.436 140.998 5.584 141.758 5.88 C 142.518 6.176 143.17 6.6 143.714 7.152 C 144.258 7.696 144.678 8.36 144.974 9.144 C 145.27 9.928 145.418 10.812 145.418 11.796 C 145.418 12.78 145.27 13.668 144.974 14.46 C 144.678 15.244 144.258 15.912 143.714 16.464 C 143.17 17.016 142.518 17.44 141.758 17.736 C 140.998 18.032 140.154 18.18 139.226 18.18 C 138.29 18.18 137.438 18.032 136.67 17.736 C 135.91 17.44 135.258 17.016 134.714 16.464 C 134.17 15.912 133.746 15.244 133.442 14.46 C 133.146 13.668 132.998 12.78 132.998 11.796 C 132.998 10.812 133.146 9.928 133.442 9.144 C 133.746 8.36 134.17 7.696 134.714 7.152 C 135.258 6.6 135.91 6.176 136.67 5.88 C 137.438 5.584 138.29 5.436 139.226 5.436 Z M 139.226 15.696 C 140.17 15.696 140.87 15.372 141.326 14.724 C 141.782 14.068 142.01 13.096 142.01 11.808 C 142.01 10.528 141.782 9.564 141.326 8.916 C 140.87 8.26 140.17 7.932 139.226 7.932 C 138.258 7.932 137.546 8.26 137.09 8.916 C 136.634 9.564 136.406 10.528 136.406 11.808 C 136.406 13.096 136.634 14.068 137.09 14.724 C 137.546 15.372 138.258 15.696 139.226 15.696 Z M 165.558 5.628 L 165.558 18 L 163.518 18 C 163.094 18 162.822 17.808 162.702 17.424 L 162.486 16.56 C 162.238 16.8 161.982 17.02 161.718 17.22 C 161.454 17.42 161.17 17.592 160.866 17.736 C 160.57 17.88 160.246 17.992 159.894 18.072 C 159.55 18.152 159.174 18.192 158.766 18.192 C 158.094 18.192 157.494 18.076 156.966 17.844 C 156.446 17.612 156.01 17.288 155.658 16.872 C 155.306 16.456 155.038 15.96 154.854 15.384 C 154.67 14.808 154.578 14.176 154.578 13.488 L 154.578 5.628 L 157.89 5.628 L 157.89 13.488 C 157.89 14.176 158.046 14.712 158.358 15.096 C 158.678 15.472 159.15 15.66 159.774 15.66 C 160.238 15.66 160.674 15.56 161.082 15.36 C 161.49 15.152 161.878 14.872 162.246 14.52 L 162.246 5.628 L 165.558 5.628 Z M 183.183 8.172 C 183.095 8.308 183.003 8.408 182.907 8.472 C 182.819 8.528 182.695 8.556 182.535 8.556 C 182.375 8.556 182.211 8.516 182.043 8.436 C 181.875 8.356 181.687 8.272 181.479 8.184 C 181.271 8.088 181.031 8 180.759 7.92 C 180.495 7.84 180.187 7.8 179.835 7.8 C 179.299 7.8 178.883 7.912 178.587 8.136 C 178.291 8.352 178.143 8.64 178.143 9 C 178.143 9.248 178.227 9.456 178.395 9.624 C 178.563 9.792 178.783 9.94 179.055 10.068 C 179.335 10.188 179.651 10.304 180.003 10.416 C 180.355 10.52 180.715 10.636 181.083 10.764 C 181.459 10.892 181.823 11.04 182.175 11.208 C 182.527 11.376 182.839 11.588 183.111 11.844 C 183.391 12.092 183.615 12.396 183.783 12.756 C 183.951 13.108 184.035 13.536 184.035 14.04 C 184.035 14.64 183.923 15.196 183.699 15.708 C 183.483 16.212 183.163 16.648 182.739 17.016 C 182.315 17.384 181.787 17.672 181.155 17.88 C 180.523 18.088 179.795 18.192 178.971 18.192 C 178.547 18.192 178.127 18.152 177.711 18.072 C 177.295 18 176.899 17.896 176.523 17.76 C 176.147 17.616 175.795 17.452 175.467 17.268 C 175.139 17.084 174.855 16.884 174.615 16.668 L 175.383 15.432 C 175.471 15.288 175.579 15.176 175.707 15.096 C 175.843 15.016 176.015 14.976 176.223 14.976 C 176.423 14.976 176.607 15.028 176.775 15.132 C 176.943 15.228 177.131 15.336 177.339 15.456 C 177.547 15.568 177.791 15.676 178.071 15.78 C 178.359 15.876 178.715 15.924 179.139 15.924 C 179.459 15.924 179.735 15.888 179.967 15.816 C 180.199 15.744 180.387 15.648 180.531 15.528 C 180.675 15.4 180.779 15.26 180.843 15.108 C 180.915 14.948 180.951 14.784 180.951 14.616 C 180.951 14.344 180.863 14.124 180.687 13.956 C 180.519 13.78 180.295 13.628 180.015 13.5 C 179.743 13.372 179.427 13.256 179.067 13.152 C 178.707 13.048 178.339 12.932 177.963 12.804 C 177.595 12.676 177.231 12.524 176.871 12.348 C 176.519 12.172 176.203 11.952 175.923 11.688 C 175.651 11.416 175.427 11.084 175.251 10.692 C 175.083 10.3 174.999 9.824 174.999 9.264 C 174.999 8.752 175.099 8.268 175.299 7.812 C 175.499 7.348 175.799 6.94 176.199 6.588 C 176.599 6.236 177.095 5.956 177.687 5.748 C 178.287 5.54 178.979 5.436 179.763 5.436 C 180.643 5.436 181.443 5.58 182.163 5.868 C 182.883 6.156 183.475 6.532 183.939 6.996 L 183.183 8.172 Z M 201.157 10.356 C 201.157 10.012 201.109 9.684 201.013 9.372 C 200.925 9.06 200.781 8.784 200.581 8.544 C 200.381 8.304 200.129 8.116 199.825 7.98 C 199.521 7.836 199.157 7.764 198.733 7.764 C 197.941 7.764 197.321 7.988 196.873 8.436 C 196.425 8.884 196.133 9.524 195.997 10.356 L 201.157 10.356 Z M 195.949 12.324 C 196.053 13.484 196.381 14.332 196.933 14.868 C 197.493 15.404 198.221 15.672 199.117 15.672 C 199.573 15.672 199.965 15.62 200.293 15.516 C 200.629 15.404 200.921 15.284 201.169 15.156 C 201.425 15.02 201.653 14.9 201.853 14.796 C 202.061 14.684 202.265 14.628 202.465 14.628 C 202.721 14.628 202.921 14.724 203.065 14.916 L 204.025 16.116 C 203.673 16.524 203.285 16.864 202.861 17.136 C 202.437 17.4 201.997 17.612 201.541 17.772 C 201.085 17.924 200.625 18.028 200.161 18.084 C 199.697 18.148 199.249 18.18 198.817 18.18 C 197.953 18.18 197.145 18.04 196.393 17.76 C 195.649 17.472 194.997 17.052 194.437 16.5 C 193.885 15.94 193.449 15.248 193.129 14.424 C 192.809 13.6 192.649 12.644 192.649 11.556 C 192.649 10.716 192.785 9.924 193.057 9.18 C 193.337 8.436 193.737 7.788 194.257 7.236 C 194.777 6.684 195.409 6.248 196.153 5.928 C 196.897 5.6 197.737 5.436 198.673 5.436 C 199.465 5.436 200.193 5.564 200.857 5.82 C 201.529 6.068 202.105 6.432 202.585 6.912 C 203.073 7.392 203.449 7.984 203.713 8.688 C 203.985 9.384 204.121 10.18 204.121 11.076 C 204.121 11.324 204.109 11.528 204.085 11.688 C 204.061 11.848 204.021 11.976 203.965 12.072 C 203.909 12.168 203.833 12.236 203.737 12.276 C 203.641 12.308 203.517 12.324 203.365 12.324 L 195.949 12.324 Z" stroke-linecap="round" />
</g>
<g transform="matrix(1 0 0 1 238.25 545.09)" style="" id="b2311ece-fcad-48fb-a44f-a255c60e50a3"  >
		<text xml:space="preserve" font-family="Raleway" font-size="131" font-style="normal" font-weight="700" style="stroke: none; stroke-width: 1; stroke-dasharray: none; stroke-linecap: butt; stroke-dashoffset: 0; stroke-linejoin: miter; stroke-miterlimit: 4; fill: rgb(41,40,40); fill-rule: nonzero; opacity: 1; white-space: pre;" ><tspan x="-205.74" y="41.15" >H</tspan><tspan x="-83.51" y="41.15" >e</tspan><tspan x="20.5" y="41.15" >a</tspan><tspan x="121.24" y="41.15" >d</tspan></text>
</g>
</svg>